<?xml version="1.0" encoding="UTF-8" standalone="no"?>
<!DOCTYPE svg PUBLIC "-//W3C//DTD SVG 1.1//EN"
 "http://www.w3.org/Graphics/SVG/1.1/DTD/svg11.dtd">
<!-- Generated by graphviz version 2.40.1 (20161225.0304)
 -->
<!-- Title: G Pages: 1 -->
<svg width="224pt" height="406pt"
 viewBox="0.00 0.00 224.00 406.21" xmlns="http://www.w3.org/2000/svg" xmlns:xlink="http://www.w3.org/1999/xlink">
<g id="graph0" class="graph" transform="scale(1 1) rotate(0) translate(4 402.2139)">
<title>G</title>
<polygon fill="#ffffff" stroke="transparent" points="-4,4 -4,-402.2139 220,-402.2139 220,4 -4,4"/>
<g id="clust2" class="cluster">
<title>cluster_1</title>
<polygon fill="none" stroke="#0000ff" points="133,-64.2139 133,-354.2139 208,-354.2139 208,-64.2139 133,-64.2139"/>
<text text-anchor="middle" x="170.5" y="-339.0139" font-family="Times,serif" font-size="14.00" fill="#000000">process #2</text>
</g>
<g id="clust1" class="cluster">
<title>cluster_0</title>
<polygon fill="#d3d3d3" stroke="#d3d3d3" points="8,-64.2139 8,-354.2139 98,-354.2139 98,-64.2139 8,-64.2139"/>
<text text-anchor="middle" x="53" y="-339.0139" font-family="Times,serif" font-size="14.00" fill="#000000">process #1</text>
</g>
<!-- a0 -->
<g id="node1" class="node">
<title>a0</title>
<ellipse fill="#ffffff" stroke="#ffffff" cx="63" cy="-306.2139" rx="27" ry="18"/>
<text text-anchor="middle" x="63" y="-302.0139" font-family="Times,serif" font-size="14.00" fill="#000000">a0</text>
</g>
<!-- a1 -->
<g id="node2" class="node">
<title>a1</title>
<ellipse fill="#ffffff" stroke="#ffffff" cx="63" cy="-234.2139" rx="27" ry="18"/>
<text text-anchor="middle" x="63" y="-230.0139" font-family="Times,serif" font-size="14.00" fill="#000000">a1</text>
</g>
<!-- a0&#45;&gt;a1 -->
<g id="edge1" class="edge">
<title>a0&#45;&gt;a1</title>
<path fill="none" stroke="#000000" d="M63,-288.0452C63,-280.3448 63,-271.1882 63,-262.6305"/>
<polygon fill="#000000" stroke="#000000" points="66.5001,-262.6271 63,-252.6271 59.5001,-262.6272 66.5001,-262.6271"/>
</g>
<!-- a2 -->
<g id="node3" class="node">
<title>a2</title>
<ellipse fill="#ffffff" stroke="#ffffff" cx="63" cy="-162.2139" rx="27" ry="18"/>
<text text-anchor="middle" x="63" y="-158.0139" font-family="Times,serif" font-size="14.00" fill="#000000">a2</text>
</g>
<!-- a1&#45;&gt;a2 -->
<g id="edge2" class="edge">
<title>a1&#45;&gt;a2</title>
<path fill="none" stroke="#000000" d="M63,-216.0452C63,-208.3448 63,-199.1882 63,-190.6305"/>
<polygon fill="#000000" stroke="#000000" points="66.5001,-190.6271 63,-180.6271 59.5001,-190.6272 66.5001,-190.6271"/>
</g>
<!-- b3 -->
<g id="node8" class="node">
<title>b3</title>
<ellipse fill="#d3d3d3" stroke="#000000" cx="168" cy="-90.2139" rx="27" ry="18"/>
<text text-anchor="middle" x="168" y="-86.0139" font-family="Times,serif" font-size="14.00" fill="#000000">b3</text>
</g>
<!-- a1&#45;&gt;b3 -->
<g id="edge9" class="edge">
<title>a1&#45;&gt;b3</title>
<path fill="none" stroke="#000000" d="M74.8407,-217.9752C93.195,-192.8036 128.6326,-144.2034 150.1169,-114.7393"/>
<polygon fill="#000000" stroke="#000000" points="152.9777,-116.7564 156.0414,-106.6142 147.3216,-112.6322 152.9777,-116.7564"/>
</g>
<!-- a3 -->
<g id="node4" class="node">
<title>a3</title>
<ellipse fill="#ffffff" stroke="#ffffff" cx="63" cy="-90.2139" rx="27" ry="18"/>
<text text-anchor="middle" x="63" y="-86.0139" font-family="Times,serif" font-size="14.00" fill="#000000">a3</text>
</g>
<!-- a2&#45;&gt;a3 -->
<g id="edge3" class="edge">
<title>a2&#45;&gt;a3</title>
<path fill="none" stroke="#000000" d="M63,-144.0452C63,-136.3448 63,-127.1882 63,-118.6305"/>
<polygon fill="#000000" stroke="#000000" points="66.5001,-118.6271 63,-108.6271 59.5001,-118.6272 66.5001,-118.6271"/>
</g>
<!-- a3&#45;&gt;a0 -->
<g id="edge11" class="edge">
<title>a3&#45;&gt;a0</title>
<path fill="none" stroke="#000000" d="M48.8771,-105.9294C40.7465,-116.067 31.3099,-129.9791 27,-144.2139 13.0904,-190.1543 13.0904,-206.2734 27,-252.2139 30.2661,-263.0011 36.4764,-273.6031 42.8313,-282.5176"/>
<polygon fill="#000000" stroke="#000000" points="40.0487,-284.6407 48.8771,-290.4983 45.6285,-280.4138 40.0487,-284.6407"/>
</g>
<!-- end -->
<g id="node10" class="node">
<title>end</title>
<polygon fill="none" stroke="#000000" points="133.2145,-36.3214 96.7855,-36.3214 96.7855,.1076 133.2145,.1076 133.2145,-36.3214"/>
<polyline fill="none" stroke="#000000" points="108.7855,-36.3214 96.7855,-24.3214 "/>
<polyline fill="none" stroke="#000000" points="96.7855,-11.8924 108.7855,.1076 "/>
<polyline fill="none" stroke="#000000" points="121.2145,.1076 133.2145,-11.8924 "/>
<polyline fill="none" stroke="#000000" points="133.2145,-24.3214 121.2145,-36.3214 "/>
<text text-anchor="middle" x="115" y="-13.9069" font-family="Times,serif" font-size="14.00" fill="#000000">end</text>
</g>
<!-- a3&#45;&gt;end -->
<g id="edge12" class="edge">
<title>a3&#45;&gt;end</title>
<path fill="none" stroke="#000000" d="M74.7996,-73.8517C81.0108,-65.2388 88.7817,-54.4631 95.8314,-44.6874"/>
<polygon fill="#000000" stroke="#000000" points="98.7732,-46.5918 101.7836,-36.4337 93.0956,-42.4974 98.7732,-46.5918"/>
</g>
<!-- b0 -->
<g id="node5" class="node">
<title>b0</title>
<ellipse fill="#d3d3d3" stroke="#000000" cx="168" cy="-306.2139" rx="27" ry="18"/>
<text text-anchor="middle" x="168" y="-302.0139" font-family="Times,serif" font-size="14.00" fill="#000000">b0</text>
</g>
<!-- b1 -->
<g id="node6" class="node">
<title>b1</title>
<ellipse fill="#d3d3d3" stroke="#000000" cx="170" cy="-234.2139" rx="27" ry="18"/>
<text text-anchor="middle" x="170" y="-230.0139" font-family="Times,serif" font-size="14.00" fill="#000000">b1</text>
</g>
<!-- b0&#45;&gt;b1 -->
<g id="edge4" class="edge">
<title>b0&#45;&gt;b1</title>
<path fill="none" stroke="#000000" d="M168.5047,-288.0452C168.7186,-280.3448 168.9729,-271.1882 169.2106,-262.6305"/>
<polygon fill="#000000" stroke="#000000" points="172.7094,-262.7205 169.4885,-252.6271 165.7121,-262.5261 172.7094,-262.7205"/>
</g>
<!-- b2 -->
<g id="node7" class="node">
<title>b2</title>
<ellipse fill="#d3d3d3" stroke="#000000" cx="173" cy="-162.2139" rx="27" ry="18"/>
<text text-anchor="middle" x="173" y="-158.0139" font-family="Times,serif" font-size="14.00" fill="#000000">b2</text>
</g>
<!-- b1&#45;&gt;b2 -->
<g id="edge5" class="edge">
<title>b1&#45;&gt;b2</title>
<path fill="none" stroke="#000000" d="M170.757,-216.0452C171.0779,-208.3448 171.4594,-199.1882 171.816,-190.6305"/>
<polygon fill="#000000" stroke="#000000" points="175.3133,-190.7642 172.2328,-180.6271 168.3194,-190.4727 175.3133,-190.7642"/>
</g>
<!-- b2&#45;&gt;a3 -->
<g id="edge10" class="edge">
<title>b2&#45;&gt;a3</title>
<path fill="none" stroke="#000000" d="M153.5874,-149.5075C136.258,-138.1646 110.6682,-121.4149 91.1028,-108.6084"/>
<polygon fill="#000000" stroke="#000000" points="92.8724,-105.5836 82.5885,-103.0354 89.0387,-111.4405 92.8724,-105.5836"/>
</g>
<!-- b2&#45;&gt;b3 -->
<g id="edge6" class="edge">
<title>b2&#45;&gt;b3</title>
<path fill="none" stroke="#000000" d="M171.7383,-144.0452C171.2035,-136.3448 170.5677,-127.1882 169.9734,-118.6305"/>
<polygon fill="#000000" stroke="#000000" points="173.4632,-118.3606 169.2787,-108.6271 166.48,-118.8456 173.4632,-118.3606"/>
</g>
<!-- b3&#45;&gt;end -->
<g id="edge13" class="edge">
<title>b3&#45;&gt;end</title>
<path fill="none" stroke="#000000" d="M155.9735,-73.8517C149.6428,-65.2388 141.7225,-54.4631 134.5372,-44.6874"/>
<polygon fill="#000000" stroke="#000000" points="137.2132,-42.4184 128.4705,-36.4337 131.5729,-46.5641 137.2132,-42.4184"/>
</g>
<!-- start -->
<g id="node9" class="node">
<title>start</title>
<polygon fill="none" stroke="#000000" points="115,-398.2139 79.3482,-380.2139 115,-362.2139 150.6518,-380.2139 115,-398.2139"/>
<polyline fill="none" stroke="#000000" points="90.0603,-385.6222 90.0603,-374.8055 "/>
<polyline fill="none" stroke="#000000" points="104.2879,-367.6222 125.7121,-367.6222 "/>
<polyline fill="none" stroke="#000000" points="139.9397,-374.8055 139.9397,-385.6222 "/>
<polyline fill="none" stroke="#000000" points="125.7121,-392.8055 104.2879,-392.8055 "/>
<text text-anchor="middle" x="115" y="-376.0139" font-family="Times,serif" font-size="14.00" fill="#000000">start</text>
</g>
<!-- start&#45;&gt;a0 -->
<g id="edge7" class="edge">
<title>start&#45;&gt;a0</title>
<path fill="none" stroke="#000000" d="M105.4624,-366.6411C98.4315,-356.6356 88.6722,-342.7473 80.2824,-330.808"/>
<polygon fill="#000000" stroke="#000000" points="83.0872,-328.7118 74.474,-322.5422 77.3598,-332.7365 83.0872,-328.7118"/>
</g>
<!-- start&#45;&gt;b0 -->
<g id="edge8" class="edge">
<title>start&#45;&gt;b0</title>
<path fill="none" stroke="#000000" d="M124.4753,-366.9842C131.6152,-357.0152 141.6145,-343.054 150.2285,-331.0268"/>
<polygon fill="#000000" stroke="#000000" points="153.2181,-332.8637 156.1954,-322.6957 147.5271,-328.7877 153.2181,-332.8637"/>
</g>
</g>
</svg>
